<svg width="35" height="29" viewBox="0 0 35 29" fill="none" xmlns="http://www.w3.org/2000/svg">
<path d="M13.75 16.8754C13.75 17.2462 13.64 17.6087 13.434 17.9171C13.228 18.2254 12.9351 18.4657 12.5925 18.6076C12.2499 18.7496 11.8729 18.7867 11.5092 18.7143C11.1455 18.642 10.8114 18.4634 10.5492 18.2012C10.287 17.939 10.1084 17.6049 10.036 17.2412C9.96368 16.8774 10.0008 16.5004 10.1427 16.1578C10.2846 15.8152 10.525 15.5224 10.8333 15.3164C11.1416 15.1103 11.5042 15.0004 11.875 15.0004C12.3721 15.0009 12.8487 15.1986 13.2002 15.5501C13.5517 15.9016 13.7495 16.3782 13.75 16.8754ZM23.125 15.0004C22.7542 15.0004 22.3916 15.1103 22.0833 15.3164C21.775 15.5224 21.5346 15.8152 21.3927 16.1578C21.2508 16.5004 21.2137 16.8774 21.286 17.2412C21.3584 17.6049 21.537 17.939 21.7992 18.2012C22.0614 18.4634 22.3955 18.642 22.7592 18.7143C23.1229 18.7867 23.4999 18.7496 23.8425 18.6076C24.1851 18.4657 24.478 18.2254 24.684 17.9171C24.89 17.6087 25 17.2462 25 16.8754C24.9995 16.3782 24.8017 15.9016 24.4502 15.5501C24.0987 15.1986 23.6221 15.0009 23.125 15.0004V15.0004ZM35 5.00037V17.5004C34.9967 20.483 33.8103 23.3426 31.7013 25.4516C29.5922 27.5607 26.7327 28.747 23.75 28.7504H11.25C8.26734 28.747 5.40781 27.5607 3.29875 25.4516C1.18969 23.3426 0.00334984 20.483 1.67762e-10 17.5004V5.00037C-9.96419e-06 3.78331 0.443859 2.60803 1.2484 1.69483C2.05295 0.781627 3.16293 0.193206 4.37029 0.039861C5.57765 -0.113484 6.79949 0.178777 7.80678 0.86186C8.81406 1.54494 9.53764 2.57195 9.84187 3.75037H25.1581C25.4624 2.57195 26.1859 1.54494 27.1932 0.86186C28.2005 0.178777 29.4224 -0.113484 30.6297 0.039861C31.8371 0.193206 32.947 0.781627 33.7516 1.69483C34.5561 2.60803 35 3.78331 35 5.00037ZM28.75 16.2504C28.75 14.9243 28.2232 13.6525 27.2855 12.7148C26.3479 11.7771 25.0761 11.2504 23.75 11.2504H11.25C9.92392 11.2504 8.65215 11.7771 7.71447 12.7148C6.77678 13.6525 6.25 14.9243 6.25 16.2504V17.5004C6.25 18.8264 6.77678 20.0982 7.71447 21.0359C8.65215 21.9736 9.92392 22.5004 11.25 22.5004H23.75C25.0761 22.5004 26.3479 21.9736 27.2855 21.0359C28.2232 20.0982 28.75 18.8264 28.75 17.5004V16.2504Z" fill="#F8F8F8"/>
</svg>
